HIERARCHY
ROOT root     
{
	OFFSET 0.0000 0.0000 0.0000
	CHANNELS 6 Xposition Yposition Zposition Zrotation Yrotation Xrotation
	JOINT pelvis   
	{
		OFFSET 0.0000 0.0000 0.0000
		CHANNELS 3 Zrotation Yrotation Xrotation
		JOINT thorax   
		{
			OFFSET 0.0000 23.0750 -5.0000
			CHANNELS 3 Zrotation Yrotation Xrotation
			JOINT rclavicle
			{
				OFFSET 0.0000 28.0009 0.0000
				CHANNELS 3 Zrotation Yrotation Xrotation
				JOINT rhumerus 
				{
					OFFSET -18.5725 5.5939 0.0000
					CHANNELS 3 Zrotation Yrotation Xrotation
					JOINT rradius  
					{
						OFFSET -24.8459 0.0000 0.0000
						CHANNELS 3 Zrotation Yrotation Xrotation
						JOINT rhand    
						{
							OFFSET -24.5477 0.0000 0.0000
							CHANNELS 3 Zrotation Yrotation Xrotation
							End Site
							{
								OFFSET -8.1826 0.0000 0.0000
							}
						}
					}
				}
			}
			JOINT lclavicle
			{
				OFFSET 0.0000 28.0009 0.0000
				CHANNELS 3 Zrotation Yrotation Xrotation
				JOINT lhumerus 
				{
					OFFSET 18.5725 5.5939 0.0000
					CHANNELS 3 Zrotation Yrotation Xrotation
					JOINT lradius  
					{
						OFFSET 24.8459 0.0000 0.0000
						CHANNELS 3 Zrotation Yrotation Xrotation
						JOINT lhand    
						{
							OFFSET 24.5477 0.0000 0.0000
							CHANNELS 3 Zrotation Yrotation Xrotation
							End Site
							{
								OFFSET 8.1826 0.0000 0.0000
							}
						}
					}
				}
			}
			JOINT head     
			{
				OFFSET 0.0000 35.2030 0.0000
				CHANNELS 3 Zrotation Yrotation Xrotation
				End Site
				{
					OFFSET 0.0000 11.7343 0.0000
				}
			}
		}
		JOINT rfemur   
		{
			OFFSET -8.2817 0.0000 0.0000
			CHANNELS 3 Zrotation Yrotation Xrotation
			JOINT rtibia   
			{
				OFFSET 0.0000 -43.3627 0.0000
				CHANNELS 3 Zrotation Yrotation Xrotation
				JOINT rfoot    
				{
					OFFSET 0.0000 -38.2947 0.0000
					CHANNELS 3 Zrotation Yrotation Xrotation
					JOINT rtoes    
					{
						OFFSET 0.0000 0.0000 16.6054
						CHANNELS 3 Zrotation Yrotation Xrotation
						End Site
						{
							OFFSET 0.0000 0.0000 5.5351
						}
					}
				}
			}
		}
		JOINT lfemur   
		{
			OFFSET 8.2817 0.0000 0.0000
			CHANNELS 3 Zrotation Yrotation Xrotation
			JOINT ltibia   
			{
				OFFSET 0.0000 -43.3627 0.0000
				CHANNELS 3 Zrotation Yrotation Xrotation
				JOINT lfoot    
				{
					OFFSET 0.0000 -38.2947 0.0000
					CHANNELS 3 Zrotation Yrotation Xrotation
					JOINT ltoes    
					{
						OFFSET 0.0000 0.0000 16.6054
						CHANNELS 3 Zrotation Yrotation Xrotation
						End Site
						{
							OFFSET 0.0000 0.0000 5.5351
						}
					}
				}
			}
		}
	}
}
MOTION
Frames: 15
Frame Time: .0333333
-32.541 76.058 -10.346 -1.91597 69.6973 19.2334 0 -0 0 -3.61776 1.93618 21.2108 22.5008 -12.496 0.000134394 42.7403 -9.56449 19.4988 180 75.242 180 0.149299 2.30517 0.00299992 -15.8614 17.1584 5.13964e-05 -56.866 36.1224 12.5541 180 -83.3298 180 1.42083 1.37113 0.0170005 12.5708 -12.5103 -12.6952 -0.0448679 -10.49 -24.9249 -0 -0 65.0795 -4.2811e-06 7.22008 -9.50712 -1.19871 -5.20589e-06 -60.9075 -1.37755 11.6643 -63.3467 -0 -0 50.801 5.29904e-06 3.76372 5.49757 0.361103 2.93125e-06 -31.6904 
-31.387 75.696 -10.181 -2.20674 68.6421 18.6612 0 -0 0 -4.15606 1.95266 21.0123 22.7098 -12.3712 -3.09148e-05 43.582 -9.9959 19.0966 -180 76.1094 -180 0.323794 2.40305 0.00679995 -16.3139 17.0826 0.000115375 -56.5564 35.171 12.0293 180 -83.3723 180 1.43457 1.33124 0.0167003 12.6582 -12.1622 -12.5842 -0.614453 -10.0812 -25.0852 -0 -0 67.2129 1.24203e-06 6.95916 -8.59737 -1.04542 1.77479e-06 -60.2443 -1.45626 12.491 -63.3712 -0 -0 53.2883 -3.61433e-06 4.31484 4.4233 0.333401 4.28481e-07 -30.7698 
-30.264 75.359 -10.013 -2.39001 67.5906 18.2198 0 -0 0 -4.6985 1.92948 20.8038 22.9347 -12.2208 -2.85453e-05 44.5627 -10.4158 18.5668 180 77.0842 180 0.480411 2.54353 0.0107001 -16.8299 16.978 -8.3868e-07 -56.1374 34.0358 11.4764 180 -83.527 -180 1.45909 1.33537 0.0169996 12.7135 -11.825 -12.4801 -1.14541 -9.7167 -25.3599 -0 -0 69.3729 8.07224e-07 6.3668 -7.81312 -0.868994 9.22221e-06 -58.6947 -1.59075 13.3239 -63.3296 -0 -0 55.5587 6.29795e-06 4.89631 3.18222 0.272496 -2.37523e-06 -30.265 
-29.172 75.053 -9.8397 -2.49297 66.5634 17.88 0 -0 0 -5.23013 1.85483 20.5963 23.1781 -12.0509 6.47038e-05 45.6775 -10.81 17.9074 180 78.1819 180 0.598306 2.72784 0.0141999 -17.3953 16.8466 -5.96439e-05 -55.6217 32.709 10.895 180 -83.8105 180 1.50485 1.39862 0.0183996 12.7283 -11.502 -12.3809 -1.62561 -9.41493 -25.7373 -0 -0 71.5243 -2.75005e-07 5.45671 -7.19282 -0.685307 5.91865e-07 -56.2584 -1.75064 14.1268 -63.2151 -0 -0 57.587 -1.43637e-06 5.50134 1.80929 0.174205 1.09521e-06 -30.2091 
-28.112 74.782 -9.6624 -2.53673 65.576 17.6162 0 -0 0 -5.73622 1.72018 20.3976 23.4354 -11.8705 -4.56676e-05 46.9144 -11.1619 17.123 -180 79.4053 -180 0.654299 2.94986 0.0167998 -17.9966 16.6856 3.135e-05 -55.0266 31.199 10.2848 180 -84.244 -180 1.57987 1.52661 0.0210995 12.6956 -11.1907 -12.2826 -2.04381 -9.18784 -26.2058 -0 -0 73.6348 3.79692e-06 4.27008 -6.76834 -0.504198 -1.64462e-06 -52.9909 -1.90604 14.868 -63.0221 -0 -0 59.3682 3.27627e-07 6.12456 0.351494 0.0376998 -1.20195e-08 -30.5771 
-27.084 74.549 -9.4806 -2.54405 64.637 17.4036 0 -0 0 -6.20377 1.52042 20.2175 23.703 -11.6858 4.9052e-05 48.252 -11.4554 16.2311 -180 80.7699 -180 0.621889 3.19852 0.0173997 -18.6159 16.4962 7.32133e-05 -54.3737 29.5254 9.64048 180 -84.8335 -180 1.68661 1.72345 0.0253994 12.6129 -10.8904 -12.1823 -2.39121 -9.04133 -26.7543 -0 -0 75.6739 3.80804e-06 2.8729 -6.56081 -0.328496 5.11193e-07 -49.0048 -2.03041 15.5206 -62.7437 -0 -0 60.9163 2.19711e-08 6.76148 -1.135 -0.134603 -1.09882e-06 -31.2941 
-26.087 74.353 -9.2942 -2.53174 63.7567 17.2197 0 -0 0 -6.62338 1.25266 20.0619 23.9783 -11.5059 7.00411e-05 49.6643 -11.6738 15.2554 180 82.2623 180 0.4726 3.45682 0.0143 -19.2294 16.2832 -7.43892e-05 -53.6948 27.7041 8.96156 180 -85.5716 -180 1.82464 1.98445 0.0316002 12.483 -10.6009 -12.0779 -2.66121 -8.97482 -27.3711 -0 -0 77.6125 3.76796e-07 1.34858 -6.57667 -0.154494 2.22271e-06 -44.5062 -2.10547 16.0706 -62.3785 -0 -0 62.2485 -5.34646e-06 7.40982 -2.59101 -0.336797 6.77419e-07 -32.2483 
-25.122 74.195 -9.1026 -2.51759 62.9356 17.0441 0 -0 0 -6.98815 0.918088 19.9357 24.2562 -11.3346 -6.24166e-05 51.1193 -11.8091 14.2249 180 83.8843 180 0.179501 3.70219 0.00579976 -19.8203 16.0321 2.43946e-05 -53.0187 25.786 8.22833 180 -86.4392 180 1.98865 2.29898 0.0398986 12.3128 -10.3181 -11.9677 -2.84775 -8.9806 -28.0498 -0 -0 79.4269 -7.83464e-08 -0.211898 -6.79891 0.0251001 8.54807e-08 -39.8034 -2.11739 16.5095 -61.9296 -0 -0 63.3935 3.88988e-06 8.0667 -3.95962 -0.560703 5.55781e-06 -33.312 
-24.188 74.072 -8.9053 -2.51489 62.1729 16.8631 0 -0 0 -7.29573 0.518889 19.8396 24.5297 -11.1777 -5.91632e-05 52.5804 -11.8552 13.1797 -180 85.6313 -180 -0.284401 3.91013 -0.00970025 -20.3569 15.7541 -5.10607e-05 -52.382 23.7999 7.44571 180 -87.4376 180 2.17272 2.65301 0.0503007 12.1135 -10.0433 -11.8506 -2.94498 -9.04713 -28.7864 -0 -0 81.0981 1.58893e-06 -1.71844 -7.1979 0.2154 -5.59298e-07 -35.2027 -2.06082 16.8403 -61.4023 -0 -0 64.3772 -2.1429e-06 8.72867 -5.19345 -0.796194 -1.06857e-06 -34.3638 
-23.286 73.982 -8.7011 -2.53295 61.4697 16.6691 0 -0 0 -7.54597 0.0594509 19.771 24.7939 -11.0369 -4.39398e-05 54.0112 -11.8152 12.1573 -180 87.4473 -180 -0.939397 4.05415 -0.0332004 -20.8183 15.4399 0.00017292 -51.8119 21.7972 6.60077 180 -88.5047 -180 2.36792 3.02791 0.0626003 11.9002 -9.77457 -11.7268 -2.94799 -9.16087 -29.5821 -0 -0 82.6128 6.57518e-06 -3.09016 -7.73581 0.416306 8.66587e-07 -30.9616 -1.94001 17.0772 -60.81 -0 -0 65.2301 8.93055e-07 9.38927 -6.25889 -1.03279 1.54859e-06 -35.3108 
-22.417 73.92 -8.4893 -2.58358 60.822 16.4509 0 -0 0 -7.74162 -0.454896 19.7253 25.0448 -10.9119 6.83307e-05 55.3774 -11.7015 11.1974 -180 89.3503 -180 -1.79623 4.10835 -0.064401 -21.1856 15.0833 -0.000113983 -51.3333 19.8319 5.68823 180 -89.697 -180 2.56552 3.40405 0.0762016 11.6888 -9.51342 -11.5958 -2.85151 -9.30902 -30.4379 -0 -0 83.9631 -2.67743e-06 -4.26276 -8.37059 0.621703 8.57179e-06 -27.2662 -1.76313 17.2386 -60.1683 -0 -0 65.9709 3.66916e-06 10.0391 -7.14014 -1.26046 1.95859e-05 -36.1001 
-21.583 73.885 -8.2686 -2.67035 60.2241 16.2108 0 -0 0 -7.88799 -1.01818 19.6995 25.2798 -10.8045 -6.75076e-05 56.6474 -11.5259 10.3374 8.4644e-06 88.6862 9.03412e-06 -2.85332 4.05134 -0.100897 -21.432 14.7024 9.51292e-05 -50.9632 17.9185 4.72624 0 -89.2017 0 2.75895 3.76426 0.0907009 11.4979 -9.26132 -11.4607 -2.65175 -9.48147 -31.3563 -0 -0 85.147 3.6887e-06 -5.19251 -9.0655 0.820312 -7.27656e-06 -24.1705 -1.5436 17.3501 -59.4926 -0 -0 66.6207 9.43933e-06 10.6664 -7.84088 -1.47193 -1.9889e-05 -36.7152 
-20.784 73.872 -8.0385 -2.79599 59.6719 15.9502 0 -0 0 -7.99063 -1.62379 19.6881 25.4924 -10.7111 -1.84498e-06 57.7942 -11.3127 9.60482 2.57663e-06 86.7376 2.72762e-06 -4.08989 3.86564 -0.1381 -21.5523 14.2832 3.23647e-05 -50.7049 16.1148 3.70632 -6.50109e-06 -88.0712 6.28755e-06 2.93998 4.091 0.105004 11.3416 -9.02266 -11.32 -2.34631 -9.67114 -32.3403 -0 -0 86.1601 5.43637e-06 -5.85935 -9.78122 0.998805 -5.34111e-07 -21.7082 -1.29712 17.4383 -58.8032 -0 -0 67.19 2.67559e-06 11.2579 -8.3827 -1.66224 -8.10472e-06 -37.1623 
-20.021 73.879 -7.7985 -2.95907 59.1591 15.6728 0 -0 0 -8.05607 -2.26453 19.6855 25.6808 -10.6296 -3.74683e-05 58.7991 -11.0862 9.02162 0 84.8208 0 -5.4675 3.54407 -0.169299 -21.5438 13.8211 4.35597e-05 -50.5512 14.4565 2.63404 -1.13352e-05 -87.069 1.14915e-05 3.10132 4.37149 0.1184 11.2331 -8.8021 -11.1734 -1.93544 -9.87512 -33.3925 -0 -0 87.0057 3.55029e-06 -6.26734 -10.4826 1.1447 3.78989e-06 -19.8406 -1.03836 17.5276 -58.1128 -0 -0 67.6855 4.45947e-05 11.8012 -8.80084 -1.83098 7.12863e-06 -37.4712 
-19.293 73.903 -7.5487 -3.15348 58.6829 15.3877 0 -0 0 -8.09118 -2.9339 19.6912 25.8444 -10.5603 5.0193e-05 59.6463 -10.8692 8.60327 3.20814e-07 82.9772 9.20818e-07 -6.93094 3.09018 -0.1872 -21.4023 13.3529 -5.58951e-05 -50.4892 12.9189 1.55008 -3.78423e-06 -86.167 4.04581e-06 3.23902 4.60004 0.130101 11.1815 -8.60348 -11.022 -1.4219 -10.0932 -34.511 -0 -0 87.6811 -9.71217e-07 -6.44371 -11.1369 1.24977 -1.69596e-08 -18.5092 -0.779926 17.6384 -57.4306 -0 -0 68.1079 -2.72704e-05 12.2883 -9.13778 -1.98119 5.69383e-06 -37.6813 
